<?xml version="1.0" encoding="utf-8"?>
<!-- Generator: Adobe Illustrator 23.0.2, SVG Export Plug-In . SVG Version: 6.00 Build 0)  -->
<svg version="1.1" id="Ebene_1" xmlns="http://www.w3.org/2000/svg" xmlns:xlink="http://www.w3.org/1999/xlink" x="0px" y="0px"
	 viewBox="0 0 569.22 310.87" style="enable-background:new 0 0 569.22 310.87;" xml:space="preserve">
<style type="text/css">
	.st0{fill:none;stroke:#000000;stroke-width:0.1;stroke-miterlimit:10;}
</style>
<g>
	<line class="st0" x1="225" y1="112.13" x2="200" y2="126.57"/>
	<line class="st0" x1="175" y1="112.13" x2="200" y2="126.57"/>
	<line class="st0" x1="424.83" y1="83.36" x2="399.83" y2="97.79"/>
	<line class="st0" x1="0" y1="126.57" x2="25" y2="141"/>
	<line class="st0" x1="424.83" y1="83.36" x2="449.83" y2="97.79"/>
	<line class="st0" x1="569.22" y1="108.99" x2="549.67" y2="97.7"/>
	<line class="st0" x1="569.22" y1="115.28" x2="549.67" y2="126.57"/>
	<line class="st0" x1="524.67" y1="112.13" x2="549.67" y2="97.7"/>
	<line class="st0" x1="449.83" y1="97.79" x2="474.83" y2="83.36"/>
	<line class="st0" x1="499.83" y1="97.79" x2="524.83" y2="83.36"/>
	<line class="st0" x1="499.83" y1="97.79" x2="474.83" y2="83.36"/>
	<line class="st0" x1="175" y1="112.13" x2="150" y2="126.57"/>
	<line class="st0" x1="50" y1="126.57" x2="25" y2="112.13"/>
	<line class="st0" x1="50" y1="126.57" x2="75" y2="112.13"/>
	<line class="st0" x1="225" y1="112.13" x2="250" y2="126.57"/>
	<line class="st0" x1="100" y1="126.57" x2="75" y2="112.13"/>
	<line class="st0" x1="125" y1="112.13" x2="150" y2="126.57"/>
	<line class="st0" x1="125" y1="112.13" x2="100" y2="126.57"/>
	<line class="st0" x1="250" y1="126.57" x2="275" y2="112.13"/>
	<line class="st0" x1="25" y1="198.73" x2="50" y2="184.3"/>
	<line class="st0" x1="325" y1="169.87" x2="350" y2="155.43"/>
	<line class="st0" x1="75" y1="198.73" x2="50" y2="184.3"/>
	<line class="st0" x1="100" y1="184.3" x2="75" y2="198.73"/>
	<line class="st0" x1="569.22" y1="173.01" x2="549.67" y2="184.3"/>
	<line class="st0" x1="524.67" y1="169.87" x2="549.67" y2="184.3"/>
	<line class="st0" x1="300" y1="155.43" x2="325" y2="169.87"/>
	<line class="st0" x1="524.67" y1="198.73" x2="499.67" y2="184.3"/>
	<line class="st0" x1="200" y1="155.43" x2="175" y2="169.87"/>
	<line class="st0" x1="300" y1="126.57" x2="275" y2="112.13"/>
	<line class="st0" x1="200" y1="155.43" x2="225" y2="169.87"/>
	<line class="st0" x1="250" y1="155.43" x2="225" y2="169.87"/>
	<line class="st0" x1="125" y1="169.87" x2="150" y2="155.43"/>
	<line class="st0" x1="175" y1="169.87" x2="150" y2="155.43"/>
	<line class="st0" x1="350" y1="184.3" x2="375" y2="169.87"/>
	<line class="st0" x1="350" y1="184.3" x2="374.83" y2="198.64"/>
	<line class="st0" x1="275" y1="169.87" x2="300" y2="184.3"/>
	<line class="st0" x1="275" y1="169.87" x2="250" y2="184.3"/>
	<line class="st0" x1="300" y1="184.3" x2="275" y2="198.73"/>
	<line class="st0" x1="325" y1="169.87" x2="350" y2="184.3"/>
	<line class="st0" x1="325" y1="169.87" x2="300" y2="184.3"/>
	<line class="st0" x1="350" y1="184.3" x2="325" y2="198.73"/>
	<line class="st0" x1="300" y1="184.3" x2="325" y2="198.73"/>
	<line class="st0" x1="374.83" y1="198.64" x2="399.83" y2="184.2"/>
	<line class="st0" x1="374.83" y1="83.36" x2="399.83" y2="97.79"/>
	<line class="st0" x1="474.67" y1="198.73" x2="499.67" y2="184.3"/>
	<line class="st0" x1="424.83" y1="198.64" x2="399.83" y2="184.2"/>
	<line class="st0" x1="100" y1="184.3" x2="125" y2="198.73"/>
	<line class="st0" x1="150" y1="184.3" x2="125" y2="169.87"/>
	<line class="st0" x1="474.67" y1="198.73" x2="449.67" y2="184.3"/>
	<line class="st0" x1="424.83" y1="198.64" x2="449.67" y2="184.3"/>
	<line class="st0" x1="150" y1="184.3" x2="125" y2="198.73"/>
	<line class="st0" x1="200" y1="184.3" x2="175" y2="169.87"/>
	<line class="st0" x1="150" y1="184.3" x2="175" y2="169.87"/>
	<line class="st0" x1="175" y1="198.73" x2="150" y2="184.3"/>
	<line class="st0" x1="175" y1="198.73" x2="200" y2="184.3"/>
	<line class="st0" x1="225" y1="169.87" x2="200" y2="184.3"/>
	<line class="st0" x1="225" y1="169.87" x2="250" y2="184.3"/>
	<line class="st0" x1="225" y1="198.73" x2="200" y2="184.3"/>
	<line class="st0" x1="250" y1="184.3" x2="275" y2="198.73"/>
	<line class="st0" x1="250" y1="184.3" x2="225" y2="198.73"/>
	<line class="st0" x1="300" y1="155.43" x2="275" y2="169.87"/>
	<line class="st0" x1="250" y1="155.43" x2="275" y2="169.87"/>
	<line class="st0" x1="499.67" y1="184.3" x2="524.67" y2="169.87"/>
	<line class="st0" x1="499.67" y1="184.3" x2="474.67" y2="169.87"/>
	<line class="st0" x1="569.22" y1="137.85" x2="549.67" y2="126.57"/>
	<line class="st0" x1="549.67" y1="155.43" x2="524.67" y2="169.87"/>
	<line class="st0" x1="499.67" y1="155.43" x2="524.67" y2="169.87"/>
	<line class="st0" x1="524.67" y1="141" x2="549.67" y2="155.43"/>
	<line class="st0" x1="524.67" y1="112.13" x2="549.67" y2="126.57"/>
	<line class="st0" x1="524.67" y1="141" x2="549.67" y2="126.57"/>
	<line class="st0" x1="474.67" y1="169.87" x2="499.67" y2="155.43"/>
	<line class="st0" x1="524.67" y1="112.13" x2="499.83" y2="97.79"/>
	<line class="st0" x1="474.83" y1="112.23" x2="499.83" y2="97.79"/>
	<line class="st0" x1="499.67" y1="126.57" x2="524.67" y2="112.13"/>
	<line class="st0" x1="399.83" y1="184.2" x2="375" y2="169.87"/>
	<line class="st0" x1="424.67" y1="169.87" x2="399.83" y2="184.2"/>
	<line class="st0" x1="424.67" y1="169.87" x2="399.83" y2="155.53"/>
	<line class="st0" x1="75" y1="169.87" x2="100" y2="184.3"/>
	<line class="st0" x1="125" y1="169.87" x2="100" y2="155.43"/>
	<line class="st0" x1="125" y1="169.87" x2="100" y2="184.3"/>
	<line class="st0" x1="374.83" y1="112.23" x2="349.83" y2="97.79"/>
	<line class="st0" x1="349.83" y1="126.66" x2="374.83" y2="112.23"/>
	<line class="st0" x1="300" y1="126.57" x2="324.83" y2="112.23"/>
	<line class="st0" x1="349.83" y1="126.66" x2="324.83" y2="112.23"/>
	<line class="st0" x1="399.83" y1="97.79" x2="424.83" y2="112.23"/>
	<line class="st0" x1="374.83" y1="112.23" x2="399.83" y2="97.79"/>
	<line class="st0" x1="399.83" y1="126.66" x2="374.83" y2="112.23"/>
	<line class="st0" x1="449.83" y1="97.79" x2="424.83" y2="112.23"/>
	<line class="st0" x1="449.83" y1="97.79" x2="474.83" y2="112.23"/>
	<line class="st0" x1="474.83" y1="112.23" x2="499.67" y2="126.57"/>
	<line class="st0" x1="474.83" y1="112.23" x2="449.83" y2="126.66"/>
	<line class="st0" x1="399.83" y1="126.66" x2="424.83" y2="112.23"/>
	<line class="st0" x1="424.83" y1="112.23" x2="449.83" y2="126.66"/>
	<line class="st0" x1="449.67" y1="184.3" x2="474.67" y2="169.87"/>
	<line class="st0" x1="449.67" y1="184.3" x2="424.67" y2="169.87"/>
	<line class="st0" x1="424.67" y1="169.87" x2="449.67" y2="155.43"/>
	<line class="st0" x1="474.67" y1="169.87" x2="449.67" y2="155.43"/>
	<line class="st0" x1="75" y1="141" x2="100" y2="126.57"/>
	<line class="st0" x1="125" y1="141" x2="100" y2="126.57"/>
	<line class="st0" x1="100" y1="155.43" x2="125" y2="141"/>
	<line class="st0" x1="200" y1="126.57" x2="225" y2="141"/>
	<line class="st0" x1="200" y1="126.57" x2="175" y2="141"/>
	<line class="st0" x1="175" y1="141" x2="200" y2="155.43"/>
	<line class="st0" x1="225" y1="141" x2="200" y2="155.43"/>
	<line class="st0" x1="150" y1="126.57" x2="175" y2="141"/>
	<line class="st0" x1="150" y1="126.57" x2="125" y2="141"/>
	<line class="st0" x1="150" y1="155.43" x2="125" y2="141"/>
	<line class="st0" x1="175" y1="141" x2="150" y2="155.43"/>
	<line class="st0" x1="250" y1="126.57" x2="225" y2="141"/>
	<line class="st0" x1="250" y1="126.57" x2="275" y2="141"/>
	<line class="st0" x1="225" y1="141" x2="250" y2="155.43"/>
	<line class="st0" x1="275" y1="141" x2="250" y2="155.43"/>
	<line class="st0" x1="50" y1="184.3" x2="25" y2="169.87"/>
	<line class="st0" x1="75" y1="169.87" x2="50" y2="184.3"/>
	<line class="st0" x1="375" y1="169.87" x2="350" y2="155.43"/>
	<line class="st0" x1="375" y1="169.87" x2="399.83" y2="155.53"/>
	<line class="st0" x1="275" y1="141" x2="300" y2="126.57"/>
	<line class="st0" x1="300" y1="155.43" x2="325" y2="141"/>
	<line class="st0" x1="275" y1="141" x2="300" y2="155.43"/>
	<line class="st0" x1="325" y1="141" x2="300" y2="126.57"/>
	<line class="st0" x1="50" y1="126.57" x2="25" y2="141"/>
	<line class="st0" x1="75" y1="141" x2="50" y2="126.57"/>
	<line class="st0" x1="100" y1="155.43" x2="75" y2="169.87"/>
	<line class="st0" x1="100" y1="155.43" x2="75" y2="141"/>
	<line class="st0" x1="50" y1="155.43" x2="75" y2="169.87"/>
	<line class="st0" x1="75" y1="141" x2="50" y2="155.43"/>
	<line class="st0" x1="569.22" y1="166.72" x2="549.67" y2="155.43"/>
	<line class="st0" x1="569.22" y1="144.15" x2="549.67" y2="155.43"/>
	<line class="st0" x1="0" y1="184.3" x2="25" y2="169.87"/>
	<line class="st0" x1="524.67" y1="141" x2="499.67" y2="155.43"/>
	<line class="st0" x1="499.67" y1="126.57" x2="524.67" y2="141"/>
	<line class="st0" x1="474.67" y1="141" x2="499.67" y2="155.43"/>
	<line class="st0" x1="499.67" y1="126.57" x2="474.67" y2="141"/>
	<line class="st0" x1="350" y1="155.43" x2="325" y2="141"/>
	<line class="st0" x1="374.83" y1="141.1" x2="349.83" y2="126.66"/>
	<line class="st0" x1="325" y1="141" x2="349.83" y2="126.66"/>
	<line class="st0" x1="350" y1="155.43" x2="374.83" y2="141.1"/>
	<line class="st0" x1="399.83" y1="155.53" x2="424.83" y2="141.1"/>
	<line class="st0" x1="374.83" y1="141.1" x2="399.83" y2="126.66"/>
	<line class="st0" x1="424.83" y1="141.1" x2="399.83" y2="126.66"/>
	<line class="st0" x1="399.83" y1="155.53" x2="374.83" y2="141.1"/>
	<line class="st0" x1="449.67" y1="155.43" x2="424.83" y2="141.1"/>
	<line class="st0" x1="449.67" y1="155.43" x2="474.67" y2="141"/>
	<line class="st0" x1="449.83" y1="126.66" x2="474.67" y2="141"/>
	<line class="st0" x1="424.83" y1="141.1" x2="449.83" y2="126.66"/>
	<line class="st0" x1="0" y1="155.43" x2="25" y2="141"/>
	<line class="st0" x1="50" y1="155.43" x2="25" y2="169.87"/>
	<line class="st0" x1="50" y1="155.43" x2="25" y2="141"/>
	<line class="st0" x1="0" y1="155.43" x2="25" y2="169.87"/>
	<line class="st0" x1="374.83" y1="285.24" x2="399.83" y2="270.81"/>
	<line class="st0" x1="374.83" y1="285.24" x2="349.83" y2="270.81"/>
	<line class="st0" x1="424.83" y1="285.24" x2="399.83" y2="270.81"/>
	<line class="st0" x1="324.83" y1="285.24" x2="349.83" y2="270.81"/>
	<line class="st0" x1="224.83" y1="285.24" x2="200" y2="270.9"/>
	<line class="st0" x1="324.83" y1="285.24" x2="299.83" y2="270.81"/>
	<line class="st0" x1="299.83" y1="270.81" x2="274.83" y2="285.24"/>
	<line class="st0" x1="224.83" y1="285.24" x2="249.83" y2="270.81"/>
	<line class="st0" x1="274.83" y1="285.24" x2="249.83" y2="270.81"/>
	<line class="st0" x1="480.45" y1="0" x2="499.83" y2="11.19"/>
	<line class="st0" x1="499.83" y1="270.81" x2="474.83" y2="285.24"/>
	<line class="st0" x1="519.22" y1="0" x2="499.83" y2="11.19"/>
	<line class="st0" x1="469.22" y1="0" x2="449.83" y2="11.19"/>
	<line class="st0" x1="419.22" y1="0" x2="399.83" y2="11.19"/>
	<line class="st0" x1="430.45" y1="0" x2="449.83" y2="11.19"/>
	<line class="st0" x1="549.83" y1="270.81" x2="569.22" y2="259.62"/>
	<line class="st0" x1="549.67" y1="242.04" x2="569.22" y2="253.32"/>
	<line class="st0" x1="499.83" y1="270.81" x2="524.83" y2="285.24"/>
	<line class="st0" x1="524.83" y1="256.37" x2="549.83" y2="270.81"/>
	<line class="st0" x1="530.45" y1="0" x2="549.83" y2="11.19"/>
	<line class="st0" x1="569.22" y1="0" x2="549.83" y2="11.19"/>
	<line class="st0" x1="569.22" y1="28.87" x2="549.83" y2="40.06"/>
	<line class="st0" x1="524.83" y1="25.63" x2="549.83" y2="11.19"/>
	<line class="st0" x1="549.83" y1="11.19" x2="569.22" y2="22.38"/>
	<line class="st0" x1="449.83" y1="270.81" x2="424.83" y2="285.24"/>
	<line class="st0" x1="449.83" y1="270.81" x2="474.83" y2="285.24"/>
	<line class="st0" x1="174.83" y1="25.63" x2="199.83" y2="40.06"/>
	<line class="st0" x1="75" y1="25.53" x2="100" y2="39.96"/>
	<line class="st0" x1="100" y1="39.96" x2="125" y2="25.53"/>
	<line class="st0" x1="150" y1="39.96" x2="174.83" y2="25.63"/>
	<line class="st0" x1="150" y1="39.96" x2="125" y2="25.53"/>
	<line class="st0" x1="324.83" y1="25.63" x2="299.83" y2="40.06"/>
	<line class="st0" x1="224.83" y1="25.63" x2="199.83" y2="40.06"/>
	<line class="st0" x1="224.83" y1="25.63" x2="249.83" y2="40.06"/>
	<line class="st0" x1="274.83" y1="25.63" x2="299.83" y2="40.06"/>
	<line class="st0" x1="274.83" y1="25.63" x2="249.83" y2="40.06"/>
	<line class="st0" x1="75" y1="285.34" x2="100" y2="270.9"/>
	<line class="st0" x1="150" y1="270.9" x2="125" y2="285.34"/>
	<line class="st0" x1="125" y1="285.34" x2="100" y2="270.9"/>
	<line class="st0" x1="175" y1="285.34" x2="200" y2="270.9"/>
	<line class="st0" x1="175" y1="285.34" x2="150" y2="270.9"/>
	<line class="st0" x1="75" y1="25.53" x2="50" y2="39.96"/>
	<line class="st0" x1="75" y1="285.34" x2="50" y2="270.9"/>
	<line class="st0" x1="324.83" y1="25.63" x2="349.83" y2="40.06"/>
	<line class="st0" x1="25" y1="25.53" x2="50" y2="39.96"/>
	<line class="st0" x1="0" y1="39.96" x2="25" y2="54.4"/>
	<line class="st0" x1="25" y1="285.34" x2="50" y2="270.9"/>
	<line class="st0" x1="0" y1="270.9" x2="25" y2="256.47"/>
	<line class="st0" x1="274.83" y1="285.24" x2="299.83" y2="299.67"/>
	<line class="st0" x1="274.83" y1="285.24" x2="249.83" y2="299.67"/>
	<line class="st0" x1="269.22" y1="310.87" x2="249.83" y2="299.67"/>
	<line class="st0" x1="324.83" y1="285.24" x2="349.83" y2="299.67"/>
	<line class="st0" x1="324.83" y1="285.24" x2="299.83" y2="299.67"/>
	<line class="st0" x1="280.45" y1="310.87" x2="299.83" y2="299.67"/>
	<line class="st0" x1="319.22" y1="310.87" x2="299.83" y2="299.67"/>
	<line class="st0" x1="224.83" y1="285.24" x2="199.83" y2="299.67"/>
	<line class="st0" x1="224.83" y1="285.24" x2="249.83" y2="299.67"/>
	<line class="st0" x1="230.45" y1="310.87" x2="249.83" y2="299.67"/>
	<line class="st0" x1="219.22" y1="310.87" x2="199.83" y2="299.67"/>
	<line class="st0" x1="330.45" y1="310.87" x2="349.83" y2="299.67"/>
	<line class="st0" x1="125" y1="285.34" x2="150" y2="299.77"/>
	<line class="st0" x1="125" y1="285.34" x2="100" y2="299.77"/>
	<line class="st0" x1="119.22" y1="310.87" x2="100" y2="299.77"/>
	<line class="st0" x1="130.78" y1="310.87" x2="150" y2="299.77"/>
	<line class="st0" x1="175" y1="285.34" x2="199.83" y2="299.67"/>
	<line class="st0" x1="175" y1="285.34" x2="150" y2="299.77"/>
	<line class="st0" x1="180.45" y1="310.87" x2="199.83" y2="299.67"/>
	<line class="st0" x1="169.22" y1="310.87" x2="150" y2="299.77"/>
	<line class="st0" x1="524.83" y1="285.24" x2="499.83" y2="299.67"/>
	<line class="st0" x1="530.45" y1="310.87" x2="549.83" y2="299.67"/>
	<line class="st0" x1="75" y1="285.34" x2="100" y2="299.77"/>
	<line class="st0" x1="75" y1="285.34" x2="50" y2="299.77"/>
	<line class="st0" x1="80.78" y1="310.87" x2="100" y2="299.77"/>
	<line class="st0" x1="549.83" y1="299.67" x2="569.22" y2="310.87"/>
	<line class="st0" x1="549.83" y1="270.81" x2="569.22" y2="282"/>
	<line class="st0" x1="524.83" y1="285.24" x2="549.83" y2="270.81"/>
	<line class="st0" x1="524.83" y1="285.24" x2="549.83" y2="299.67"/>
	<line class="st0" x1="549.83" y1="299.67" x2="569.22" y2="288.48"/>
	<line class="st0" x1="499.83" y1="299.67" x2="519.22" y2="310.87"/>
	<line class="st0" x1="374.83" y1="285.24" x2="399.83" y2="299.67"/>
	<line class="st0" x1="374.83" y1="285.24" x2="349.83" y2="299.67"/>
	<line class="st0" x1="369.22" y1="310.87" x2="349.83" y2="299.67"/>
	<line class="st0" x1="380.45" y1="310.87" x2="399.83" y2="299.67"/>
	<line class="st0" x1="474.83" y1="285.24" x2="499.83" y2="299.67"/>
	<line class="st0" x1="474.83" y1="285.24" x2="449.83" y2="299.67"/>
	<line class="st0" x1="499.83" y1="299.67" x2="480.45" y2="310.87"/>
	<line class="st0" x1="424.83" y1="285.24" x2="399.83" y2="299.67"/>
	<line class="st0" x1="424.83" y1="285.24" x2="449.83" y2="299.67"/>
	<line class="st0" x1="419.22" y1="310.87" x2="399.83" y2="299.67"/>
	<line class="st0" x1="469.22" y1="310.87" x2="449.83" y2="299.67"/>
	<line class="st0" x1="430.45" y1="310.87" x2="449.83" y2="299.67"/>
	<line class="st0" x1="224.83" y1="25.63" x2="199.83" y2="11.19"/>
	<line class="st0" x1="224.83" y1="25.63" x2="249.83" y2="11.19"/>
	<line class="st0" x1="380.45" y1="0" x2="399.83" y2="11.19"/>
	<line class="st0" x1="374.83" y1="25.63" x2="349.83" y2="11.19"/>
	<line class="st0" x1="219.22" y1="0" x2="199.83" y2="11.19"/>
	<line class="st0" x1="174.83" y1="25.63" x2="199.83" y2="11.19"/>
	<line class="st0" x1="174.83" y1="25.63" x2="149.83" y2="11.19"/>
	<line class="st0" x1="180.45" y1="0" x2="199.83" y2="11.19"/>
	<line class="st0" x1="125" y1="25.53" x2="100" y2="11.1"/>
	<line class="st0" x1="125" y1="25.53" x2="149.83" y2="11.19"/>
	<line class="st0" x1="169.22" y1="0" x2="149.83" y2="11.19"/>
	<line class="st0" x1="130.45" y1="0" x2="149.83" y2="11.19"/>
	<line class="st0" x1="324.83" y1="25.63" x2="299.83" y2="11.19"/>
	<line class="st0" x1="324.83" y1="25.63" x2="349.83" y2="11.19"/>
	<line class="st0" x1="319.22" y1="0" x2="299.83" y2="11.19"/>
	<line class="st0" x1="369.22" y1="0" x2="349.83" y2="11.19"/>
	<line class="st0" x1="330.45" y1="0" x2="349.83" y2="11.19"/>
	<line class="st0" x1="230.45" y1="0" x2="249.83" y2="11.19"/>
	<line class="st0" x1="274.83" y1="25.63" x2="299.83" y2="11.19"/>
	<line class="st0" x1="274.83" y1="25.63" x2="249.83" y2="11.19"/>
	<line class="st0" x1="280.45" y1="0" x2="299.83" y2="11.19"/>
	<line class="st0" x1="269.22" y1="0" x2="249.83" y2="11.19"/>
	<line class="st0" x1="100" y1="11.1" x2="119.22" y2="0"/>
	<line class="st0" x1="25" y1="25.53" x2="0" y2="39.96"/>
	<line class="st0" x1="25" y1="285.34" x2="0" y2="270.9"/>
	<line class="st0" x1="25" y1="285.34" x2="50" y2="299.77"/>
	<line class="st0" x1="25" y1="285.34" x2="0" y2="299.77"/>
	<line class="st0" x1="19.22" y1="310.87" x2="0" y2="299.77"/>
	<line class="st0" x1="69.22" y1="310.87" x2="50" y2="299.77"/>
	<line class="st0" x1="30.78" y1="310.87" x2="50" y2="299.77"/>
	<line class="st0" x1="75" y1="25.53" x2="100" y2="11.1"/>
	<line class="st0" x1="75" y1="25.53" x2="50" y2="11.1"/>
	<line class="st0" x1="100" y1="11.1" x2="80.78" y2="0"/>
	<line class="st0" x1="50" y1="11.1" x2="69.22" y2="0"/>
	<line class="st0" x1="50" y1="11.1" x2="25" y2="25.53"/>
	<line class="st0" x1="0" y1="11.1" x2="25" y2="25.53"/>
	<line class="st0" x1="30.78" y1="0" x2="50" y2="11.1"/>
	<line class="st0" x1="19.22" y1="0" x2="0" y2="11.1"/>
	<line class="st0" x1="324.83" y1="112.23" x2="299.83" y2="97.79"/>
	<line class="st0" x1="324.83" y1="112.23" x2="349.83" y2="97.79"/>
	<line class="st0" x1="374.83" y1="198.64" x2="349.83" y2="213.07"/>
	<line class="st0" x1="374.83" y1="198.64" x2="399.83" y2="213.07"/>
	<line class="st0" x1="349.83" y1="213.07" x2="374.83" y2="227.51"/>
	<line class="st0" x1="399.83" y1="213.07" x2="374.83" y2="227.51"/>
	<line class="st0" x1="399.83" y1="213.07" x2="424.83" y2="198.64"/>
	<line class="st0" x1="449.83" y1="213.07" x2="424.83" y2="198.64"/>
	<line class="st0" x1="399.83" y1="213.07" x2="424.83" y2="227.51"/>
	<line class="st0" x1="424.83" y1="227.51" x2="449.83" y2="213.07"/>
	<line class="st0" x1="325" y1="198.73" x2="349.83" y2="213.07"/>
	<line class="st0" x1="325" y1="198.73" x2="300" y2="213.17"/>
	<line class="st0" x1="349.83" y1="213.07" x2="324.83" y2="227.51"/>
	<line class="st0" x1="499.67" y1="213.17" x2="474.67" y2="198.73"/>
	<line class="st0" x1="449.83" y1="213.07" x2="474.67" y2="198.73"/>
	<line class="st0" x1="474.83" y1="227.51" x2="449.83" y2="213.07"/>
	<line class="st0" x1="200" y1="213.17" x2="225" y2="198.73"/>
	<line class="st0" x1="250" y1="213.17" x2="225" y2="198.73"/>
	<line class="st0" x1="225" y1="227.6" x2="250" y2="213.17"/>
	<line class="st0" x1="275" y1="198.73" x2="300" y2="213.17"/>
	<line class="st0" x1="275" y1="198.73" x2="250" y2="213.17"/>
	<line class="st0" x1="275" y1="227.6" x2="250" y2="213.17"/>
	<line class="st0" x1="300" y1="213.17" x2="324.83" y2="227.51"/>
	<line class="st0" x1="300" y1="213.17" x2="275" y2="227.6"/>
	<line class="st0" x1="569.22" y1="86.41" x2="549.67" y2="97.7"/>
	<line class="st0" x1="569.22" y1="80.12" x2="549.83" y2="68.93"/>
	<line class="st0" x1="524.83" y1="83.36" x2="549.67" y2="97.7"/>
	<line class="st0" x1="474.83" y1="227.51" x2="499.67" y2="213.17"/>
	<line class="st0" x1="399.83" y1="68.93" x2="424.83" y2="83.36"/>
	<line class="st0" x1="424.83" y1="83.36" x2="449.83" y2="68.93"/>
	<line class="st0" x1="449.83" y1="68.93" x2="424.83" y2="54.49"/>
	<line class="st0" x1="399.83" y1="68.93" x2="424.83" y2="54.49"/>
	<line class="st0" x1="474.83" y1="83.36" x2="449.83" y2="68.93"/>
	<line class="st0" x1="474.83" y1="83.36" x2="499.83" y2="68.93"/>
	<line class="st0" x1="449.83" y1="68.93" x2="474.83" y2="54.49"/>
	<line class="st0" x1="474.83" y1="54.49" x2="499.83" y2="68.93"/>
	<line class="st0" x1="499.67" y1="213.17" x2="524.67" y2="198.73"/>
	<line class="st0" x1="524.67" y1="227.6" x2="499.67" y2="213.17"/>
	<line class="st0" x1="499.83" y1="68.93" x2="524.83" y2="83.36"/>
	<line class="st0" x1="549.83" y1="68.93" x2="524.83" y2="83.36"/>
	<line class="st0" x1="524.83" y1="54.49" x2="499.83" y2="68.93"/>
	<line class="st0" x1="569.22" y1="195.59" x2="549.67" y2="184.3"/>
	<line class="st0" x1="569.22" y1="201.88" x2="549.67" y2="213.17"/>
	<line class="st0" x1="524.67" y1="198.73" x2="549.67" y2="184.3"/>
	<line class="st0" x1="549.67" y1="213.17" x2="524.67" y2="198.73"/>
	<line class="st0" x1="349.83" y1="40.06" x2="374.83" y2="25.63"/>
	<line class="st0" x1="374.83" y1="54.49" x2="399.83" y2="40.06"/>
	<line class="st0" x1="150" y1="97.7" x2="125" y2="112.13"/>
	<line class="st0" x1="100" y1="97.7" x2="125" y2="112.13"/>
	<line class="st0" x1="75" y1="112.13" x2="50" y2="97.7"/>
	<line class="st0" x1="100" y1="97.7" x2="75" y2="112.13"/>
	<line class="st0" x1="125" y1="83.26" x2="150" y2="97.7"/>
	<line class="st0" x1="200" y1="97.7" x2="175" y2="112.13"/>
	<line class="st0" x1="150" y1="97.7" x2="175" y2="112.13"/>
	<line class="st0" x1="175" y1="83.26" x2="150" y2="97.7"/>
	<line class="st0" x1="399.83" y1="68.93" x2="374.83" y2="83.36"/>
	<line class="st0" x1="374.83" y1="54.49" x2="399.83" y2="68.93"/>
	<line class="st0" x1="125" y1="83.26" x2="100" y2="97.7"/>
	<line class="st0" x1="75" y1="83.26" x2="100" y2="97.7"/>
	<line class="st0" x1="175" y1="83.26" x2="200" y2="97.7"/>
	<line class="st0" x1="299.83" y1="97.79" x2="324.83" y2="83.36"/>
	<line class="st0" x1="349.83" y1="97.79" x2="374.83" y2="83.36"/>
	<line class="st0" x1="349.83" y1="97.79" x2="324.83" y2="83.36"/>
	<line class="st0" x1="349.83" y1="68.93" x2="374.83" y2="83.36"/>
	<line class="st0" x1="200" y1="97.7" x2="225" y2="112.13"/>
	<line class="st0" x1="225" y1="112.13" x2="250" y2="97.7"/>
	<line class="st0" x1="200" y1="97.7" x2="225" y2="83.26"/>
	<line class="st0" x1="275" y1="112.13" x2="250" y2="97.7"/>
	<line class="st0" x1="275" y1="112.13" x2="299.83" y2="97.79"/>
	<line class="st0" x1="299.83" y1="97.79" x2="274.83" y2="83.36"/>
	<line class="st0" x1="250" y1="97.7" x2="225" y2="83.26"/>
	<line class="st0" x1="250" y1="97.7" x2="274.83" y2="83.36"/>
	<line class="st0" x1="0" y1="184.3" x2="25" y2="198.73"/>
	<line class="st0" x1="50" y1="213.17" x2="75" y2="198.73"/>
	<line class="st0" x1="100" y1="213.17" x2="75" y2="198.73"/>
	<line class="st0" x1="75" y1="227.6" x2="50" y2="213.17"/>
	<line class="st0" x1="75" y1="227.6" x2="100" y2="213.17"/>
	<line class="st0" x1="125" y1="198.73" x2="100" y2="213.17"/>
	<line class="st0" x1="125" y1="198.73" x2="150" y2="213.17"/>
	<line class="st0" x1="125" y1="227.6" x2="100" y2="213.17"/>
	<line class="st0" x1="150" y1="213.17" x2="125" y2="227.6"/>
	<line class="st0" x1="0" y1="126.57" x2="25" y2="112.13"/>
	<line class="st0" x1="25" y1="112.13" x2="50" y2="97.7"/>
	<line class="st0" x1="0" y1="97.7" x2="25" y2="112.13"/>
	<line class="st0" x1="75" y1="83.26" x2="50" y2="97.7"/>
	<line class="st0" x1="50" y1="97.7" x2="25" y2="83.26"/>
	<line class="st0" x1="50" y1="213.17" x2="25" y2="198.73"/>
	<line class="st0" x1="0" y1="213.17" x2="25" y2="198.73"/>
	<line class="st0" x1="50" y1="213.17" x2="25" y2="227.6"/>
	<line class="st0" x1="175" y1="198.73" x2="150" y2="213.17"/>
	<line class="st0" x1="200" y1="213.17" x2="175" y2="198.73"/>
	<line class="st0" x1="150" y1="213.17" x2="175" y2="227.6"/>
	<line class="st0" x1="225" y1="227.6" x2="200" y2="213.17"/>
	<line class="st0" x1="200" y1="213.17" x2="175" y2="227.6"/>
	<line class="st0" x1="349.83" y1="40.06" x2="324.83" y2="54.49"/>
	<line class="st0" x1="349.83" y1="40.06" x2="374.83" y2="54.49"/>
	<line class="st0" x1="374.83" y1="54.49" x2="349.83" y2="68.93"/>
	<line class="st0" x1="374.83" y1="227.51" x2="349.83" y2="241.94"/>
	<line class="st0" x1="374.83" y1="227.51" x2="399.83" y2="241.94"/>
	<line class="st0" x1="374.83" y1="256.37" x2="399.83" y2="270.81"/>
	<line class="st0" x1="424.83" y1="256.37" x2="399.83" y2="270.81"/>
	<line class="st0" x1="399.83" y1="241.94" x2="374.83" y2="256.37"/>
	<line class="st0" x1="200" y1="270.9" x2="225" y2="256.47"/>
	<line class="st0" x1="200" y1="270.9" x2="175" y2="256.47"/>
	<line class="st0" x1="424.83" y1="256.37" x2="449.83" y2="270.81"/>
	<line class="st0" x1="474.83" y1="256.37" x2="449.83" y2="270.81"/>
	<line class="st0" x1="250" y1="242.04" x2="225" y2="227.6"/>
	<line class="st0" x1="225" y1="227.6" x2="200" y2="242.04"/>
	<line class="st0" x1="200" y1="242.04" x2="225" y2="256.47"/>
	<line class="st0" x1="225" y1="256.47" x2="249.83" y2="270.81"/>
	<line class="st0" x1="274.83" y1="256.37" x2="249.83" y2="270.81"/>
	<line class="st0" x1="250" y1="242.04" x2="225" y2="256.47"/>
	<line class="st0" x1="449.83" y1="241.94" x2="474.83" y2="227.51"/>
	<line class="st0" x1="499.83" y1="241.94" x2="474.83" y2="227.51"/>
	<line class="st0" x1="449.83" y1="241.94" x2="474.83" y2="256.37"/>
	<line class="st0" x1="250" y1="242.04" x2="275" y2="227.6"/>
	<line class="st0" x1="299.83" y1="241.94" x2="275" y2="227.6"/>
	<line class="st0" x1="274.83" y1="256.37" x2="250" y2="242.04"/>
	<line class="st0" x1="324.83" y1="227.51" x2="349.83" y2="241.94"/>
	<line class="st0" x1="324.83" y1="227.51" x2="299.83" y2="241.94"/>
	<line class="st0" x1="299.83" y1="270.81" x2="324.83" y2="256.37"/>
	<line class="st0" x1="299.83" y1="270.81" x2="274.83" y2="256.37"/>
	<line class="st0" x1="274.83" y1="256.37" x2="299.83" y2="241.94"/>
	<line class="st0" x1="324.83" y1="256.37" x2="299.83" y2="241.94"/>
	<line class="st0" x1="424.83" y1="227.51" x2="399.83" y2="241.94"/>
	<line class="st0" x1="424.83" y1="227.51" x2="449.83" y2="241.94"/>
	<line class="st0" x1="399.83" y1="241.94" x2="424.83" y2="256.37"/>
	<line class="st0" x1="449.83" y1="241.94" x2="424.83" y2="256.37"/>
	<line class="st0" x1="474.83" y1="25.63" x2="449.83" y2="11.19"/>
	<line class="st0" x1="424.83" y1="25.63" x2="449.83" y2="11.19"/>
	<line class="st0" x1="474.83" y1="25.63" x2="499.83" y2="11.19"/>
	<line class="st0" x1="524.83" y1="25.63" x2="499.83" y2="11.19"/>
	<line class="st0" x1="474.83" y1="256.37" x2="499.83" y2="270.81"/>
	<line class="st0" x1="524.83" y1="256.37" x2="499.83" y2="270.81"/>
	<line class="st0" x1="474.83" y1="256.37" x2="499.83" y2="241.94"/>
	<line class="st0" x1="424.83" y1="25.63" x2="399.83" y2="11.19"/>
	<line class="st0" x1="374.83" y1="25.63" x2="399.83" y2="11.19"/>
	<line class="st0" x1="374.83" y1="25.63" x2="399.83" y2="40.06"/>
	<line class="st0" x1="449.83" y1="40.06" x2="424.83" y2="54.49"/>
	<line class="st0" x1="424.83" y1="54.49" x2="399.83" y2="40.06"/>
	<line class="st0" x1="424.83" y1="25.63" x2="449.83" y2="40.06"/>
	<line class="st0" x1="424.83" y1="25.63" x2="399.83" y2="40.06"/>
	<line class="st0" x1="449.83" y1="40.06" x2="474.83" y2="54.49"/>
	<line class="st0" x1="499.83" y1="40.06" x2="474.83" y2="54.49"/>
	<line class="st0" x1="474.83" y1="25.63" x2="449.83" y2="40.06"/>
	<line class="st0" x1="474.83" y1="25.63" x2="499.83" y2="40.06"/>
	<line class="st0" x1="569.22" y1="224.46" x2="549.67" y2="213.17"/>
	<line class="st0" x1="549.67" y1="242.04" x2="569.22" y2="230.75"/>
	<line class="st0" x1="524.67" y1="227.6" x2="549.67" y2="213.17"/>
	<line class="st0" x1="524.83" y1="256.37" x2="549.67" y2="242.04"/>
	<line class="st0" x1="524.67" y1="227.6" x2="499.83" y2="241.94"/>
	<line class="st0" x1="524.83" y1="256.37" x2="499.83" y2="241.94"/>
	<line class="st0" x1="524.67" y1="227.6" x2="549.67" y2="242.04"/>
	<line class="st0" x1="524.83" y1="25.63" x2="549.83" y2="40.06"/>
	<line class="st0" x1="499.83" y1="40.06" x2="524.83" y2="54.49"/>
	<line class="st0" x1="499.83" y1="40.06" x2="524.83" y2="25.63"/>
	<line class="st0" x1="569.22" y1="57.74" x2="549.83" y2="68.93"/>
	<line class="st0" x1="569.22" y1="51.25" x2="549.83" y2="40.06"/>
	<line class="st0" x1="524.83" y1="54.49" x2="549.83" y2="68.93"/>
	<line class="st0" x1="524.83" y1="54.49" x2="549.83" y2="40.06"/>
	<line class="st0" x1="349.83" y1="270.81" x2="374.83" y2="256.37"/>
	<line class="st0" x1="349.83" y1="270.81" x2="324.83" y2="256.37"/>
	<line class="st0" x1="349.83" y1="241.94" x2="374.83" y2="256.37"/>
	<line class="st0" x1="349.83" y1="241.94" x2="324.83" y2="256.37"/>
	<line class="st0" x1="175" y1="54.4" x2="199.83" y2="40.06"/>
	<line class="st0" x1="199.83" y1="40.06" x2="224.83" y2="54.49"/>
	<line class="st0" x1="150" y1="68.83" x2="175" y2="83.26"/>
	<line class="st0" x1="175" y1="83.26" x2="200" y2="68.83"/>
	<line class="st0" x1="200" y1="68.83" x2="175" y2="54.4"/>
	<line class="st0" x1="175" y1="54.4" x2="150" y2="39.96"/>
	<line class="st0" x1="125" y1="54.4" x2="150" y2="39.96"/>
	<line class="st0" x1="150" y1="68.83" x2="175" y2="54.4"/>
	<line class="st0" x1="150" y1="68.83" x2="125" y2="83.26"/>
	<line class="st0" x1="100" y1="68.83" x2="125" y2="83.26"/>
	<line class="st0" x1="125" y1="54.4" x2="150" y2="68.83"/>
	<line class="st0" x1="100" y1="39.96" x2="75" y2="54.4"/>
	<line class="st0" x1="100" y1="39.96" x2="125" y2="54.4"/>
	<line class="st0" x1="125" y1="54.4" x2="100" y2="68.83"/>
	<line class="st0" x1="175" y1="227.6" x2="150" y2="242.04"/>
	<line class="st0" x1="175" y1="227.6" x2="200" y2="242.04"/>
	<line class="st0" x1="200" y1="242.04" x2="175" y2="256.47"/>
	<line class="st0" x1="299.83" y1="40.06" x2="324.83" y2="54.49"/>
	<line class="st0" x1="299.83" y1="40.06" x2="274.83" y2="54.49"/>
	<line class="st0" x1="324.83" y1="83.36" x2="299.83" y2="68.93"/>
	<line class="st0" x1="324.83" y1="83.36" x2="349.83" y2="68.93"/>
	<line class="st0" x1="324.83" y1="54.49" x2="349.83" y2="68.93"/>
	<line class="st0" x1="299.83" y1="68.93" x2="324.83" y2="54.49"/>
	<line class="st0" x1="100" y1="68.83" x2="75" y2="83.26"/>
	<line class="st0" x1="50" y1="68.83" x2="75" y2="83.26"/>
	<line class="st0" x1="75" y1="54.4" x2="100" y2="68.83"/>
	<line class="st0" x1="224.83" y1="54.49" x2="249.83" y2="40.06"/>
	<line class="st0" x1="274.83" y1="54.49" x2="249.83" y2="40.06"/>
	<line class="st0" x1="225" y1="83.26" x2="200" y2="68.83"/>
	<line class="st0" x1="225" y1="83.26" x2="249.83" y2="68.93"/>
	<line class="st0" x1="200" y1="68.83" x2="224.83" y2="54.49"/>
	<line class="st0" x1="249.83" y1="68.93" x2="224.83" y2="54.49"/>
	<line class="st0" x1="274.83" y1="83.36" x2="299.83" y2="68.93"/>
	<line class="st0" x1="274.83" y1="83.36" x2="249.83" y2="68.93"/>
	<line class="st0" x1="299.83" y1="68.93" x2="274.83" y2="54.49"/>
	<line class="st0" x1="249.83" y1="68.93" x2="274.83" y2="54.49"/>
	<line class="st0" x1="75" y1="256.47" x2="100" y2="270.9"/>
	<line class="st0" x1="125" y1="256.47" x2="100" y2="270.9"/>
	<line class="st0" x1="75" y1="227.6" x2="50" y2="242.04"/>
	<line class="st0" x1="100" y1="242.04" x2="75" y2="227.6"/>
	<line class="st0" x1="100" y1="242.04" x2="75" y2="256.47"/>
	<line class="st0" x1="50" y1="270.9" x2="75" y2="256.47"/>
	<line class="st0" x1="50" y1="270.9" x2="25" y2="256.47"/>
	<line class="st0" x1="50" y1="242.04" x2="75" y2="256.47"/>
	<line class="st0" x1="150" y1="270.9" x2="125" y2="256.47"/>
	<line class="st0" x1="150" y1="270.9" x2="175" y2="256.47"/>
	<line class="st0" x1="175" y1="256.47" x2="150" y2="242.04"/>
	<line class="st0" x1="100" y1="242.04" x2="125" y2="227.6"/>
	<line class="st0" x1="150" y1="242.04" x2="125" y2="227.6"/>
	<line class="st0" x1="125" y1="256.47" x2="100" y2="242.04"/>
	<line class="st0" x1="125" y1="256.47" x2="150" y2="242.04"/>
	<line class="st0" x1="0" y1="68.83" x2="25" y2="54.4"/>
	<line class="st0" x1="50" y1="68.83" x2="25" y2="83.26"/>
	<line class="st0" x1="50" y1="39.96" x2="75" y2="54.4"/>
	<line class="st0" x1="50" y1="39.96" x2="25" y2="54.4"/>
	<line class="st0" x1="75" y1="54.4" x2="50" y2="68.83"/>
	<line class="st0" x1="25" y1="54.4" x2="50" y2="68.83"/>
	<line class="st0" x1="0" y1="97.7" x2="25" y2="83.26"/>
	<line class="st0" x1="0" y1="68.83" x2="25" y2="83.26"/>
	<line class="st0" x1="0" y1="242.04" x2="25" y2="256.47"/>
	<line class="st0" x1="50" y1="242.04" x2="25" y2="227.6"/>
	<line class="st0" x1="50" y1="242.04" x2="25" y2="256.47"/>
	<line class="st0" x1="0" y1="213.17" x2="25" y2="227.6"/>
	<line class="st0" x1="0" y1="242.04" x2="25" y2="227.6"/>
</g>
</svg>
